<?xml version="1.0" encoding="UTF-8" standalone="no"?>
<!DOCTYPE svg PUBLIC "-//W3C//DTD SVG 1.1//EN" "http://www.w3.org/Graphics/SVG/1.1/DTD/svg11.dtd">
<svg height="1024" stroke-miterlimit="10" style="fill-rule:nonzero;clip-rule:evenodd;stroke-linecap:round;stroke-linejoin:round;" version="1.1" viewBox="0 0 1024 1024" width="1024" xml:space="preserve" xmlns="http://www.w3.org/2000/svg" xmlns:xlink="http://www.w3.org/1999/xlink">
    <defs>
        <linearGradient gradientTransform="matrix(0 1024 -1024 0 512 0)" gradientUnits="userSpaceOnUse" id="LinearGradient" x1="0" x2="1" y1="0" y2="0">
            <stop offset="0" stop-color="#5e8a65"/>
            <stop offset="1" stop-color="#1a291d"/>
        </linearGradient>
    </defs>
    <g transform="scale(1.25)">
        <path d="M0 0L819.2 0L819.2 819.2L0 819.2L0 0Z" fill="#ffffff" opacity="1" stroke="none"/>
        <clipPath id="ArtboardFrame">
            <rect height="819.2" width="819.2" x="0" y="0"/>
        </clipPath>
        <g clip-path="url(#ArtboardFrame)" id="Untitled">
            <path d="M184 0L635.2 0C736.82 0 819.2 80.5887 819.2 180L819.2 639.2C819.2 738.611 736.82 819.2 635.2 819.2L184 819.2C82.3796 819.2 0 738.611 0 639.2L0 180C-0.0236508 82.097 79.9451 2.12832 180 0L184 0Z" fill="url(#LinearGradient)" opacity="1" stroke="none"/>
            <g opacity="1">
                <!-- Shadow/Back Layer of Head -->
                <path d="M332.162 734.082C316.875 684.23 293.814 647.066 262.977 622.59C216.722 585.875 143.227 608.693 116.079 570.824C88.9315 532.954 135.1 463.312 151.301 422.22C167.501 381.13 89.2039 366.6 98.3451 354.934C104.439 347.158 144.005 324.716 217.045 287.61C237.797 169.258 314.452 110.082 447.012 110.082C645.848 110.082 721.6 278.655 721.6 385.872C721.6 493.091 629.874 608.598 499.208 633.504C487.524 650.52 504.376 684.046 549.763 734.082" fill="#5a6a4b" opacity="1" stroke="none"/>
                
                <g opacity="1">
                    <!-- Front/Left Hemisphere -->
                    <clipPath id="ClipPathFront">
                        <path d="M35.2 35.2L440.8 35.2L440.8 66.4L284.8 378.4L503.2 378.4L409.6 752.8L409.6 784L35.2 784L35.2 35.2Z"/>
                    </clipPath>
                    <g clip-path="url(#ClipPathFront)">
                        <path d="M332.162 721.602C316.875 671.75 293.814 634.586 262.977 610.11C216.722 573.395 143.227 596.213 116.079 558.344C88.9315 520.474 135.1 450.832 151.301 409.74C167.501 368.65 89.2039 354.12 98.3451 342.454C104.439 334.678 144.005 312.236 217.045 275.13C237.797 156.778 314.452 97.6022 447.012 97.6022C645.848 97.6022 721.6 266.175 721.6 373.392C721.6 480.611 629.874 596.118 499.208 621.024C487.524 638.04 504.376 671.566 549.763 721.602" fill="#a8bb94" opacity="1" stroke="none"/>
                    </g>

                    <!-- Back/Right Hemisphere -->
                    <clipPath id="ClipPathBack">
                        <path d="M440.8 35.2L784 35.2L784 784L409.6 784L409.6 752.8L503.2 378.4L284.8 378.4L440.8 66.4L440.8 35.2Z"/>
                    </clipPath>
                    <g clip-path="url(#ClipPathBack)">
                        <path d="M332.162 721.602C316.875 671.75 293.814 634.586 262.977 610.11C216.722 573.395 143.227 596.213 116.079 558.344C88.9315 520.474 135.1 450.832 151.301 409.74C167.501 368.65 89.2039 354.12 98.3451 342.454C104.439 334.678 144.005 312.236 217.045 275.13C237.797 156.778 314.452 97.6022 447.012 97.6022C645.848 97.6022 721.6 266.175 721.6 373.392C721.6 480.611 629.874 596.118 499.208 621.024C487.524 638.04 504.376 671.566 549.763 721.602" fill="#7a8a6b" opacity="0.92" stroke="none"/>
                    </g>

                    <!-- Flash Split Highlight -->
                    <clipPath id="ClipPathFlash">
                        <path d="M332.162 721.602C316.875 671.75 293.814 634.586 262.977 610.11C216.722 573.395 143.227 596.213 116.079 558.344C88.9315 520.474 135.1 450.832 151.301 409.74C167.501 368.65 89.2039 354.12 98.3451 342.454C104.439 334.678 144.005 312.236 217.045 275.13C237.797 156.778 314.452 97.6022 447.012 97.6022C645.848 97.6022 721.6 266.175 721.6 373.392C721.6 480.611 629.874 596.118 499.208 621.024C487.524 638.04 504.376 671.566 549.763 721.602"/>
                    </clipPath>
                    <g clip-path="url(#ClipPathFlash)">
                        <path d="M442.414 16.3414C431.993 16.2969 423.516 24.7019 423.472 35.1224C423.43 42.2724 423.375 49.4234 423.334 56.5734C423.323 58.3238 423.321 60.0706 423.311 61.821C422.947 62.5403 422.593 63.2422 422.229 63.9615C420.585 67.209 418.947 70.4728 417.303 73.7203C410.112 87.9282 402.924 102.135 395.783 116.369C388.031 131.823 380.331 147.302 372.698 162.815C368.481 171.387 364.197 179.949 360.132 188.593C357.419 194.361 354.874 200.188 352.191 205.97C349.318 212.162 346.246 218.281 343.33 224.452C333.217 245.851 323.297 267.328 313.202 288.736C302.913 310.554 292.62 332.383 282.268 354.17C281.097 356.637 279.919 359.092 278.747 361.559C277.966 363.203 277.204 364.84 276.422 366.484C274.253 371.05 271.402 375.685 272.671 380.984C273.097 382.766 273.759 384.261 274.834 385.748C275.791 387.072 276.938 388.095 278.287 388.994C281.957 391.44 285.877 391.139 289.979 391.042C292.254 390.989 294.54 390.935 296.815 390.881C299.09 390.828 301.352 390.773 303.627 390.72C306.471 390.653 309.323 390.58 312.166 390.513C351.409 389.59 390.648 388.687 429.893 387.843C446.387 387.488 462.884 387.139 479.378 386.784C484.021 386.684 488.659 386.585 493.302 386.485C493.169 387.061 493.044 387.636 492.911 388.211C491.323 395.074 489.735 401.948 488.147 408.811C483.381 429.397 478.626 449.982 473.831 470.563C451.912 564.641 429.993 658.73 408.074 752.808C434.022 658.716 459.966 564.608 485.914 470.516C492.334 447.235 498.817 423.981 505.271 400.709C505.943 398.285 506.601 395.86 507.273 393.436C507.676 391.981 508.09 390.517 508.493 389.063C509.031 387.123 509.566 385.202 510.104 383.263C510.887 380.44 511.535 377.716 509.989 374.885C508.871 372.838 506.938 371.382 504.695 370.788C502.79 370.283 500.049 370.46 498.159 370.42C497.021 370.395 495.867 370.375 494.729 370.351C493.592 370.326 492.46 370.283 491.323 370.259C489.617 370.222 487.92 370.203 486.213 370.167C483.938 370.118 481.653 370.054 479.378 370.006C476.534 369.944 473.682 369.883 470.839 369.821C432.163 368.989 393.488 368.2 354.815 367.29C339.459 366.928 324.116 366.569 308.76 366.208C307.801 366.185 306.842 366.161 305.883 366.139C309.538 359.299 313.181 352.447 316.839 345.609C330.147 320.726 343.502 295.864 356.955 271.06C362.598 260.657 368.298 250.277 373.895 239.85C377.123 233.836 380.199 227.75 383.47 221.759C386.524 216.165 389.72 210.637 392.745 205.027C404.403 183.406 415.385 161.42 426.51 139.523C434.341 124.109 442.133 108.664 449.894 93.2149C452.141 88.7427 454.391 84.2687 456.638 79.7965C457.24 78.5976 457.985 77.3838 458.479 76.137C459.278 74.122 460.276 72.1511 460.758 70.0377C461.167 68.2406 461.036 66.3779 461.126 64.5369C461.253 61.9506 461.142 59.3243 461.149 56.7345C461.169 49.5844 461.175 42.4336 461.195 35.2836C461.239 24.863 452.834 16.3858 442.414 16.3414Z" fill="#4a5a3b" opacity="0.5" stroke="none"/>
                    </g>
                </g>
            </g>
        </g>
    </g>
</svg>